<?xml version="1.0" encoding="UTF-8"?>
<svg width="18px" height="18px" viewBox="0 0 18 18" version="1.1" xmlns="http://www.w3.org/2000/svg">
    <path d="M9,0 C4.02943725,0 0,4.02943725 0,9 C0,12.9754693 2.58046937,16.2609375 6.16453125,17.3217188 C6.60046875,17.4159375 6.77203125,17.139375 6.77203125,16.9059375 C6.77203125,16.696875 6.76453125,16.0471875 6.76453125,15.3515625 C4.5,15.8517188 3.9375,14.964375 3.9375,14.964375 C3.50671875,14.0390625 2.878125,13.80375 2.878125,13.80375 C2.12109375,13.3125 2.94375,13.321875 2.94375,13.321875 C3.7875,13.3715625 4.27734375,14.184375 4.27734375,14.184375 C5.025,15.5517188 6.3234375,15.0965625 6.77203125,14.885625 C6.85828125,14.325 7.08984375,13.92375 7.3453125,13.7109375 C5.34515625,13.4971875 3.23015625,12.80625 3.23015625,9.1171875 C3.23015625,8.0671875 3.58921875,7.1840625 4.27734375,6.49875 C4.16671875,6.225 3.85828125,5.251875 4.393125,3.9375 C4.393125,3.9375 5.1890625,3.65625 6.77203125,4.875 C7.4934375,4.6359375 8.26078125,4.51640625 9.0271875,4.5103125 C9.79359375,4.50421875 10.5609375,4.6359375 11.2823438,4.875 C12.8653125,3.65625 13.66125,3.9375 13.66125,3.9375 C14.1960938,5.251875 13.8876562,6.225 13.7770312,6.49875 C14.4651562,7.1840625 14.8242188,8.0671875 14.8242188,9.1171875 C14.8242188,12.8123438 12.7092188,13.4971875 10.7090625,13.7109375 C11.0334375,13.9771875 11.3085938,14.476875 11.3085938,15.3515625 C11.3085938,16.5515625 11.2973438,17.4965625 11.2973438,17.9059375 C11.2973438,18.139375 11.4689062,18.4159375 11.9048438,17.3217188 C15.4889062,16.2609375 18.069375,12.9754693 18.069375,9 C18.069375,4.02943725 14.0399062,0 9,0 Z" fill="currentColor"></path>
</svg> 