<svg xmlns="http://www.w3.org/2000/svg" viewBox="0 0 100 100" width="100" height="100">
  <!-- Background circle -->
  <circle cx="50" cy="50" r="45" fill="#3a4a9e" />
  
  <!-- Outer ring -->
  <circle cx="50" cy="50" r="45" fill="none" stroke="#fff" stroke-width="2" />
  
  <!-- Newspaper icon -->
  <g transform="translate(28, 25) scale(0.045 0.045)">
    <path d="M896 160v704q0 66-47 113t-113 47h-576q-66 0-113-47t-47-113v-704q0-66 47-113t113-47h576q66 0 113 47t47 113z" fill="#fff"/>
    <path d="M512 640h-256v-64h256v64z m0-128h-256v-64h256v64z m0-128h-256v-64h256v64zM896 160v704q0 66-47 113t-113 47h-576q-66 0-113-47t-47-113v-704q0-66 47-113t113-47h576q66 0 113 47t47 113z m-128 0q0-13-9.5-22.5t-22.5-9.5h-576q-13 0-22.5 9.5t-9.5 22.5v704q0 13 9.5 22.5t22.5 9.5h576q13 0 22.5-9.5t9.5-22.5v-704z" fill="#3a4a9e"/>
  </g>
  
  <!-- AI symbol -->
  <g transform="translate(52, 47) scale(0.25)">
    <path d="M 0,0 L 80,0 L 60,80 L 40,80 Z" fill="#fff" />
    <circle cx="40" cy="30" r="8" fill="#3a4a9e" />
  </g>
  
  <!-- Verification checkmark -->
  <path d="M75 42L60 62L50 52" stroke="#fff" stroke-width="4" stroke-linecap="round" stroke-linejoin="round" fill="none" />
</svg>
